<mxfile host="app.diagrams.net" modified="2022-10-28T13:29:13.101Z" agent="5.0 (Macintosh; Intel Mac OS X 10_15_7) AppleWebKit/537.36 (KHTML, like Gecko) Chrome/107.0.0.0 Safari/537.36" etag="GT0RpWsO3uGl-6Xyji1_" version="20.5.1" type="github">
  <diagram id="-ihpZ9bgNhRba5to1agg" name="Page-1">
    <mxGraphModel dx="1678" dy="941" grid="1" gridSize="10" guides="1" tooltips="1" connect="1" arrows="1" fold="1" page="1" pageScale="1" pageWidth="850" pageHeight="1100" math="0" shadow="0">
      <root>
        <mxCell id="0" />
        <mxCell id="1" parent="0" />
        <mxCell id="qnKzEJhfcJcNJxG_ybqa-5" value="main_gateway" style="rounded=0;whiteSpace=wrap;html=1;" vertex="1" parent="1">
          <mxGeometry x="250" y="80" width="320" height="320" as="geometry" />
        </mxCell>
        <mxCell id="qnKzEJhfcJcNJxG_ybqa-2" value="Concordia&lt;br&gt;WebSocket Client" style="rounded=0;whiteSpace=wrap;html=1;" vertex="1" parent="1">
          <mxGeometry x="40" y="140" width="120" height="60" as="geometry" />
        </mxCell>
        <mxCell id="qnKzEJhfcJcNJxG_ybqa-3" value="Voicebot&lt;br&gt;REST Client" style="rounded=0;whiteSpace=wrap;html=1;" vertex="1" parent="1">
          <mxGeometry x="40" y="240" width="120" height="60" as="geometry" />
        </mxCell>
        <mxCell id="qnKzEJhfcJcNJxG_ybqa-6" value="&lt;h3&gt;&lt;font face=&quot;Courier New&quot;&gt;:30056&lt;/font&gt;&lt;/h3&gt;" style="whiteSpace=wrap;html=1;aspect=fixed;fillColor=#dae8fc;strokeColor=#6c8ebf;" vertex="1" parent="1">
          <mxGeometry x="290" y="240" width="60" height="60" as="geometry" />
        </mxCell>
        <mxCell id="qnKzEJhfcJcNJxG_ybqa-7" value="&lt;h3&gt;&lt;font face=&quot;Courier New&quot;&gt;:30056&lt;/font&gt;&lt;/h3&gt;" style="whiteSpace=wrap;html=1;aspect=fixed;fillColor=#d5e8d4;strokeColor=#82b366;" vertex="1" parent="1">
          <mxGeometry x="290" y="140" width="60" height="60" as="geometry" />
        </mxCell>
        <mxCell id="qnKzEJhfcJcNJxG_ybqa-14" value="" style="endArrow=classic;startArrow=classic;html=1;rounded=0;fontFamily=Helvetica;fontSize=22;entryX=0;entryY=0.5;entryDx=0;entryDy=0;" edge="1" parent="1" target="qnKzEJhfcJcNJxG_ybqa-7">
          <mxGeometry width="50" height="50" relative="1" as="geometry">
            <mxPoint x="160" y="170" as="sourcePoint" />
            <mxPoint x="210" y="120" as="targetPoint" />
          </mxGeometry>
        </mxCell>
        <mxCell id="qnKzEJhfcJcNJxG_ybqa-15" value="" style="endArrow=classic;startArrow=classic;html=1;rounded=0;fontFamily=Helvetica;fontSize=22;entryX=1;entryY=0.5;entryDx=0;entryDy=0;" edge="1" parent="1" source="qnKzEJhfcJcNJxG_ybqa-6" target="qnKzEJhfcJcNJxG_ybqa-3">
          <mxGeometry width="50" height="50" relative="1" as="geometry">
            <mxPoint x="70" y="440" as="sourcePoint" />
            <mxPoint x="120" y="390" as="targetPoint" />
          </mxGeometry>
        </mxCell>
        <mxCell id="qnKzEJhfcJcNJxG_ybqa-27" value="Untitled Layer" style="locked=1;" parent="0" visible="0" />
        <mxCell id="qnKzEJhfcJcNJxG_ybqa-28" value="" style="whiteSpace=wrap;html=1;aspect=fixed;fillColor=none;dashed=1;" vertex="1" parent="qnKzEJhfcJcNJxG_ybqa-27">
          <mxGeometry x="210" y="70" width="490" height="490" as="geometry" />
        </mxCell>
        <mxCell id="qnKzEJhfcJcNJxG_ybqa-29" value="&lt;span style=&quot;font-weight: normal;&quot;&gt;common&lt;/span&gt;" style="text;html=1;strokeColor=none;fillColor=none;align=center;verticalAlign=middle;whiteSpace=wrap;rounded=0;fontFamily=Helvetica;fontSize=22;fontStyle=1" vertex="1" parent="qnKzEJhfcJcNJxG_ybqa-27">
          <mxGeometry x="320" y="40" width="250" height="30" as="geometry" />
        </mxCell>
        <mxCell id="qnKzEJhfcJcNJxG_ybqa-30" value="Bot Platform" style="text;html=1;strokeColor=none;fillColor=none;align=center;verticalAlign=middle;whiteSpace=wrap;rounded=0;fontFamily=Helvetica;fontSize=22;fontStyle=1" vertex="1" parent="qnKzEJhfcJcNJxG_ybqa-27">
          <mxGeometry x="560" y="10" width="250" height="30" as="geometry" />
        </mxCell>
      </root>
    </mxGraphModel>
  </diagram>
</mxfile>
